<svg width="87" height="49" viewBox="0 0 87 49" fill="none" xmlns="http://www.w3.org/2000/svg">
<path d="M37.36 11.664H43.6V37.104C43.6 43.824 40.528 46.848 35.392 46.848C33.808 46.848 32.464 46.704 31.408 46.368V40.8C32.224 41.04 33.136 41.184 34.192 41.184C36.448 41.184 37.36 39.84 37.36 36.912V11.664ZM40.48 0.815998C42.544 0.815998 44.272 2.448 44.272 4.512C44.272 6.624 42.592 8.208 40.48 8.208C38.368 8.208 36.688 6.624 36.688 4.512C36.688 2.448 38.368 0.815998 40.48 0.815998Z" fill="#373373"/>
<path d="M64.36 11.664H70.6V37.104C70.6 43.824 67.528 46.848 62.392 46.848C60.808 46.848 59.464 46.704 58.408 46.368V40.8C59.224 41.04 60.136 41.184 61.192 41.184C63.448 41.184 64.36 39.84 64.36 36.912V11.664ZM67.48 0.815998C69.544 0.815998 71.272 2.448 71.272 4.512C71.272 6.624 69.592 8.208 67.48 8.208C65.368 8.208 63.688 6.624 63.688 4.512C63.688 2.448 65.368 0.815998 67.48 0.815998Z" fill="#373373"/>
<path d="M25 36V18L31 17V36H25Z" fill="#373373"/>
<path d="M50 36V18L56 17V36H50Z" fill="#373373"/>
<path d="M76 36V18L82 17V36H76Z" fill="#373373"/>
<path d="M6 2.5V21.5L13 13H21L12 23.5L21 36H13.5L6 26V36H0V3.5L6 2.5Z" fill="#373373"/>
<circle cx="28" cy="9" r="4" fill="#F9AA17"/>
<circle cx="53" cy="9" r="4" fill="#2681DB"/>
<circle cx="79" cy="9" r="4" fill="#9B44AD"/>
<circle cx="67.3" cy="4.7" r="4" fill="#36A864"/>
<path d="M83.022 17.6H84.208V17.856H83.752V19H83.478V17.856H83.022V17.6ZM85.5525 17.6H85.8705V19H85.5945V18.114L85.5545 18.236L85.2365 19H85.0045L84.6865 18.236L84.6465 18.114V19H84.3725V17.6H84.6885L85.0885 18.502L85.1185 18.584L85.1505 18.502L85.5525 17.6Z" fill="#373373"/>
<circle cx="40.5" cy="4.3" r="4" fill="#F2454F"/>
</svg>
