<svg width="8" height="8" viewBox="0 0 8 8" fill="none" xmlns="http://www.w3.org/2000/svg">
<path d="M6.24599 1.98406C6.17997 1.78929 5.99509 1.65063 5.77721 1.65063H2.14583C1.92794 1.65063 1.74638 1.78929 1.67705 1.98406L0.990387 3.96152V6.60252C0.990387 6.78409 1.13894 6.93265 1.32051 6.93265H1.65064C1.83221 6.93265 1.98076 6.78409 1.98076 6.60252V6.2724H5.94227V6.60252C5.94227 6.78409 6.09083 6.93265 6.2724 6.93265H6.60253C6.7841 6.93265 6.93265 6.78409 6.93265 6.60252V3.96152L6.24599 1.98406ZM2.26137 2.31089H5.65837L6.0149 3.33758H1.90484L2.26137 2.31089ZM6.2724 5.61214H1.65064V3.96152H6.2724V5.61214Z" fill="#373373"/>
<path d="M2.47593 5.282C2.74942 5.282 2.97112 5.0603 2.97112 4.78681C2.97112 4.51333 2.74942 4.29163 2.47593 4.29163C2.20245 4.29163 1.98074 4.51333 1.98074 4.78681C1.98074 5.0603 2.20245 5.282 2.47593 5.282Z" fill="#373373"/>
<path d="M5.44706 5.282C5.72055 5.282 5.94225 5.0603 5.94225 4.78681C5.94225 4.51333 5.72055 4.29163 5.44706 4.29163C5.17358 4.29163 4.95187 4.51333 4.95187 4.78681C4.95187 5.0603 5.17358 5.282 5.44706 5.282Z" fill="#373373"/>
</svg>
