<svg width="10" height="10" viewBox="0 0 10 10" fill="none" xmlns="http://www.w3.org/2000/svg">
<path d="M6.04074 3.16108V2.41004H4.53866V3.16108H6.04074ZM2.28553 3.91213V8.04286H8.29387V3.91213H2.28553ZM8.29387 3.16108C8.7107 3.16108 9.04492 3.4953 9.04492 3.91213V8.04286C9.04492 8.45969 8.7107 8.79391 8.29387 8.79391H2.28553C1.8687 8.79391 1.53448 8.45969 1.53448 8.04286L1.53824 3.91213C1.53824 3.4953 1.8687 3.16108 2.28553 3.16108H3.78761V2.41004C3.78761 1.99321 4.12183 1.659 4.53866 1.659H6.04074C6.45757 1.659 6.79179 1.99321 6.79179 2.41004V3.16108H8.29387Z" fill="#373373"/>
</svg>
