<svg width="24" height="24" viewBox="0 0 24 24" fill="none" xmlns="http://www.w3.org/2000/svg">
<path fill-rule="evenodd" clip-rule="evenodd" d="M7.875 5.5C6.014 5.5 4.5 7.08 4.5 9.023C4.5 9.326 4.541 9.637 4.623 9.95C4.80162 10.6469 5.18849 11.2727 5.732 11.744L12 18.237L18.269 11.744C18.2818 11.7302 18.2952 11.7168 18.309 11.704C18.8311 11.2378 19.2028 10.6269 19.377 9.949C19.459 9.639 19.5 9.326 19.5 9.023C19.5 7.081 17.986 5.5 16.125 5.5C15.839 5.5 15.545 5.542 15.25 5.625C14.109 5.945 13.2 6.878 12.878 8.06C12.8287 8.25537 12.7156 8.4287 12.5567 8.55253C12.3977 8.67636 12.202 8.7436 12.0005 8.7436C11.799 8.7436 11.6033 8.67636 11.4443 8.55253C11.2854 8.4287 11.1723 8.25537 11.123 8.06C10.8 6.878 9.892 5.944 8.75 5.625C8.46508 5.54353 8.17134 5.50147 7.875 5.5ZM12 20C11.757 20 11.52 19.9 11.35 19.723L4.672 12.805C4.49149 12.6428 4.32305 12.4677 4.168 12.281C3.41614 11.3613 3.00371 10.2109 3 9.023C3 6.253 5.187 4 7.875 4C8.298 4 8.729 4.06 9.155 4.18C10.3423 4.52019 11.358 5.2949 12 6.35C12.642 5.2949 13.6577 4.52019 14.845 4.18C15.272 4.06 15.702 4 16.125 4C18.813 4 21 6.253 21 9.023C21 9.454 20.942 9.894 20.828 10.329C20.5823 11.2836 20.0609 12.1447 19.329 12.805L12.651 19.723C12.5665 19.8103 12.4653 19.8798 12.3535 19.9274C12.2417 19.9749 12.1215 19.9996 12 20Z" fill="#6F727F"/>
</svg>
