<svg width="48" height="48" viewBox="0 0 48 48" fill="none" xmlns="http://www.w3.org/2000/svg">
<path d="M15 16.5C16.5913 16.5 18.1174 15.8679 19.2426 14.7426C20.3679 13.6174 21 12.0913 21 10.5C21 8.9087 20.3679 7.38258 19.2426 6.25736C18.1174 5.13214 16.5913 4.5 15 4.5C13.4087 4.5 11.8826 5.13214 10.7574 6.25736C9.63214 7.38258 9 8.9087 9 10.5C9 12.0913 9.63214 13.6174 10.7574 14.7426C11.8826 15.8679 13.4087 16.5 15 16.5ZM15 15C14.4091 15 13.8239 14.8836 13.2779 14.6575C12.732 14.4313 12.2359 14.0998 11.818 13.682C11.4002 13.2641 11.0687 12.768 10.8425 12.2221C10.6164 11.6761 10.5 11.0909 10.5 10.5C10.5 9.90905 10.6164 9.32389 10.8425 8.77792C11.0687 8.23196 11.4002 7.73588 11.818 7.31802C12.2359 6.90016 12.732 6.56869 13.2779 6.34254C13.8239 6.1164 14.4091 6 15 6C16.1935 6 17.3381 6.47411 18.182 7.31802C19.0259 8.16193 19.5 9.30653 19.5 10.5C19.5 11.6935 19.0259 12.8381 18.182 13.682C17.3381 14.5259 16.1935 15 15 15ZM33 16.5C34.5913 16.5 36.1174 15.8679 37.2426 14.7426C38.3679 13.6174 39 12.0913 39 10.5C39 8.9087 38.3679 7.38258 37.2426 6.25736C36.1174 5.13214 34.5913 4.5 33 4.5C31.4087 4.5 29.8826 5.13214 28.7574 6.25736C27.6321 7.38258 27 8.9087 27 10.5C27 12.0913 27.6321 13.6174 28.7574 14.7426C29.8826 15.8679 31.4087 16.5 33 16.5ZM33 15C32.4091 15 31.8239 14.8836 31.2779 14.6575C30.732 14.4313 30.2359 14.0998 29.818 13.682C29.4002 13.2641 29.0687 12.768 28.8425 12.2221C28.6164 11.6761 28.5 11.0909 28.5 10.5C28.5 9.90905 28.6164 9.32389 28.8425 8.77792C29.0687 8.23196 29.4002 7.73588 29.818 7.31802C30.2359 6.90016 30.732 6.56869 31.2779 6.34254C31.8239 6.1164 32.4091 6 33 6C34.1935 6 35.3381 6.47411 36.182 7.31802C37.0259 8.16193 37.5 9.30653 37.5 10.5C37.5 11.6935 37.0259 12.8381 36.182 13.682C35.3381 14.5259 34.1935 15 33 15ZM30 22.5C30 24.0913 29.3679 25.6174 28.2426 26.7426C27.1174 27.8679 25.5913 28.5 24 28.5C22.4087 28.5 20.8826 27.8679 19.7574 26.7426C18.6321 25.6174 18 24.0913 18 22.5C18 20.9087 18.6321 19.3826 19.7574 18.2574C20.8826 17.1321 22.4087 16.5 24 16.5C25.5913 16.5 27.1174 17.1321 28.2426 18.2574C29.3679 19.3826 30 20.9087 30 22.5ZM28.5 22.5C28.5 21.3065 28.0259 20.1619 27.182 19.318C26.3381 18.4741 25.1935 18 24 18C22.8065 18 21.6619 18.4741 20.818 19.318C19.9741 20.1619 19.5 21.3065 19.5 22.5C19.5 23.6935 19.9741 24.8381 20.818 25.682C21.6619 26.5259 22.8065 27 24 27C25.1935 27 26.3381 26.5259 27.182 25.682C28.0259 24.8381 28.5 23.6935 28.5 22.5ZM12.3675 35.2575C12.3091 34.7871 12.3512 34.3097 12.4912 33.8569C12.6312 33.4041 12.8659 32.9862 13.1796 32.6309C13.4933 32.2756 13.879 31.9911 14.311 31.7961C14.743 31.6011 15.2115 31.5002 15.6855 31.5H32.3115C32.7855 31.5002 33.254 31.6011 33.686 31.7961C34.118 31.9911 34.5037 32.2756 34.8174 32.6309C35.1311 32.9862 35.3658 33.4041 35.5058 33.8569C35.6458 34.3097 35.688 34.7871 35.6295 35.2575C35.2931 37.9475 33.9859 40.4221 31.9535 42.2161C29.9211 44.0101 27.3035 45.0001 24.5925 45H23.4045C20.6938 44.9997 18.0765 44.0096 16.0444 42.2156C14.0123 40.4216 12.7053 37.9472 12.369 35.2575M15.6855 33C14.577 33 13.7205 33.972 13.857 35.0715C14.148 37.3985 15.2788 39.5392 17.0369 41.0912C18.795 42.6433 21.0594 43.4998 23.4045 43.5H24.5925C26.9377 43.4998 29.202 42.6433 30.9601 41.0912C32.7182 39.5392 33.849 37.3985 34.14 35.0715C34.1721 34.8123 34.1487 34.5492 34.0715 34.2997C33.9943 34.0502 33.865 33.8199 33.6922 33.624C33.5193 33.4282 33.3069 33.2713 33.0689 33.1638C32.8308 33.0562 32.5727 33.0004 32.3115 33H15.6855ZM37.323 32.358C37.0894 31.8906 36.7926 31.4575 36.441 31.071C38.2082 30.5222 39.7798 29.4758 40.9678 28.0571C42.1558 26.6385 42.91 24.9076 43.14 23.0715C43.1721 22.8123 43.1487 22.5492 43.0715 22.2997C42.9943 22.0502 42.865 21.8199 42.6922 21.624C42.5193 21.4282 42.3069 21.2713 42.0689 21.1638C41.8308 21.0562 41.5727 21.0004 41.3115 21H32.115C32.0202 20.4876 31.8771 19.9854 31.6875 19.5H41.313C41.787 19.5002 42.2555 19.6011 42.6875 19.7961C43.1195 19.9911 43.5052 20.2756 43.8189 20.6309C44.1326 20.9862 44.3673 21.4041 44.5073 21.8569C44.6473 22.3097 44.6895 22.7871 44.631 23.2575C44.375 25.3019 43.5566 27.2351 42.2668 28.8419C40.9771 30.4487 39.2667 31.6659 37.326 32.358M6.6855 19.5H16.311C16.123 19.98 15.981 20.48 15.885 21H6.6855C5.577 21 4.7205 21.972 4.857 23.0715C5.08715 24.9077 5.84152 26.6388 7.02983 28.0575C8.21815 29.4762 9.79007 30.5224 11.5575 31.071C11.2054 31.4575 10.9081 31.8905 10.674 32.358C8.73335 31.6659 7.02291 30.4487 5.73316 28.8419C4.44341 27.2351 3.62497 25.3019 3.369 23.2575C3.31057 22.7873 3.3527 22.31 3.49262 21.8573C3.63254 21.4046 3.86705 20.9867 4.18061 20.6315C4.49417 20.2762 4.87964 19.9916 5.31147 19.7966C5.7433 19.6015 6.21165 19.5004 6.6855 19.5Z" fill="#373373"/>
</svg>
