<svg width="48" height="48" viewBox="0 0 48 48" fill="none" xmlns="http://www.w3.org/2000/svg">
<path d="M9 38.45V38.4509C8.99887 39.7802 9.42132 40.9012 10.2728 41.8632C11.1054 42.8038 12.0939 43.25 13.3 43.25C15.0442 43.25 16.7715 43.1047 18.4826 42.8141C20.3048 42.5047 22.1441 42.35 24 42.35C25.8559 42.35 27.6952 42.5047 29.5174 42.8141C31.2285 43.1047 32.9559 43.25 34.7 43.25H34.7009C35.9046 43.2511 36.8921 42.8055 37.7248 41.8636C38.5768 40.8999 38.9998 39.7785 39 38.4508L9 38.45ZM9 38.45C9 36.9697 9.49636 35.6921 10.5153 34.5734C11.6973 33.2756 12.8699 31.9944 14.0332 30.73C15.0506 29.642 15.9288 28.4567 16.6667 27.1749C17.3302 26.0222 18.1212 24.9377 19.0414 23.9211L19.0526 23.9087M9 38.45L19.0526 23.9087M19.0526 23.9087L19.0634 23.8959M19.0526 23.9087L19.0634 23.8959M19.0634 23.8959C19.7247 23.1144 20.4879 22.4714 21.3557 21.9627C22.1672 21.487 23.0423 21.25 24 21.25C24.9691 21.25 25.8522 21.4761 26.6669 21.9256C27.5239 22.3984 28.2797 23.0196 28.9366 23.7959L28.942 23.8023M19.0634 23.8959L28.942 23.8023M28.942 23.8023L28.9474 23.8085M28.942 23.8023L28.9474 23.8085M28.9474 23.8085C29.8383 24.8266 30.6262 25.9244 31.3116 27.1028C32.0642 28.3968 32.9469 29.6031 33.9586 30.721L33.9585 30.721M28.9474 23.8085L33.9585 30.721M33.9585 30.721L33.9645 30.7275M33.9585 30.721L33.9645 30.7275M33.9645 30.7275C35.1297 31.9926 36.303 33.2744 37.4843 34.5729M33.9645 30.7275L37.4843 34.5729M37.4843 34.5729C38.5022 35.6919 38.9988 36.9698 39 38.4507L37.4843 34.5729ZM9 23.25C7.85806 23.25 6.93124 22.867 6.15711 22.0929C5.38298 21.3188 5 20.3919 5 19.25C5 18.1081 5.38298 17.1812 6.15711 16.4071C6.93124 15.633 7.85806 15.25 9 15.25C10.1419 15.25 11.0688 15.633 11.8429 16.4071C12.617 17.1812 13 18.1081 13 19.25C13 20.3919 12.617 21.3188 11.8429 22.0929C11.0688 22.867 10.1419 23.25 9 23.25ZM18 15.25C16.8581 15.25 15.9312 14.867 15.1571 14.0929C14.383 13.3188 14 12.3919 14 11.25C14 10.1081 14.383 9.18124 15.1571 8.40711C15.9312 7.63298 16.8581 7.25 18 7.25C19.1419 7.25 20.0688 7.63298 20.8429 8.40711C21.617 9.18124 22 10.1081 22 11.25C22 12.3919 21.617 13.3188 20.8429 14.0929C20.0688 14.867 19.1419 15.25 18 15.25ZM30 15.25C28.8581 15.25 27.9312 14.867 27.1571 14.0929C26.383 13.3188 26 12.3919 26 11.25C26 10.1081 26.383 9.18124 27.1571 8.40711C27.9312 7.63298 28.8581 7.25 30 7.25C31.1419 7.25 32.0688 7.63298 32.8429 8.40711C33.617 9.18124 34 10.1081 34 11.25C34 12.3919 33.617 13.3188 32.8429 14.0929C32.0688 14.867 31.1419 15.25 30 15.25ZM39 23.25C37.8581 23.25 36.9312 22.867 36.1571 22.0929C35.383 21.3188 35 20.3919 35 19.25C35 18.1081 35.383 17.1812 36.1571 16.4071C36.9312 15.633 37.8581 15.25 39 15.25C40.1419 15.25 41.0688 15.633 41.8429 16.4071C42.617 17.1812 43 18.1081 43 19.25C43 20.3919 42.617 21.3188 41.8429 22.0929C41.0688 22.867 40.1419 23.25 39 23.25Z" stroke="#373373" stroke-width="2"/>
</svg>
