<svg width="42" height="43" viewBox="0 0 42 43" fill="none" xmlns="http://www.w3.org/2000/svg">
<path d="M26.8057 8.51567e-05C29.6824 -0.00970443 32.4987 0.824762 34.9057 2.40009L25.3057 12.0001C24.986 12.2729 24.7241 12.6069 24.5354 12.9824C24.3468 13.358 24.2352 13.7675 24.2072 14.1869C24.1793 14.6062 24.2355 15.0269 24.3726 15.4242C24.5098 15.8215 24.725 16.1873 25.0057 16.5001C25.3185 16.7808 25.6843 16.996 26.0816 17.1331C26.4789 17.2703 26.8996 17.3265 27.3189 17.2985C27.7383 17.2706 28.1478 17.159 28.5233 16.9704C28.8989 16.7817 29.2329 16.5198 29.5057 16.2001L39.4057 6.60009C41.1173 9.11879 42.0081 12.1053 41.9557 15.1501C41.9399 19.1633 40.3387 23.0075 37.5009 25.8453C34.6631 28.6831 30.8189 30.2843 26.8057 30.3001C25.4924 30.3058 24.1831 30.1548 22.9057 29.8501L12.8557 39.9001C11.4434 41.3124 9.52795 42.1058 7.53069 42.1058C5.53342 42.1058 3.61797 41.3124 2.20569 39.9001C0.793411 38.4878 0 36.5724 0 34.5751C0 32.5778 0.793411 30.6624 2.20569 29.2501L12.2557 19.2001C11.951 17.9226 11.7999 16.6134 11.8057 15.3001C11.7658 13.3052 12.1243 11.3223 12.8602 9.46766C13.5962 7.61301 14.6947 5.92382 16.0916 4.49901C17.4885 3.0742 19.1556 1.94241 20.9953 1.1699C22.835 0.397386 24.8104 -0.00031395 26.8057 8.51567e-05ZM14.8057 15.1501C14.8077 16.216 14.9592 17.2763 15.2557 18.3001L15.7057 19.9501L14.5057 21.1501L4.45569 31.2001C4.02769 31.6053 3.68713 32.0938 3.45496 32.6355C3.22279 33.1772 3.10393 33.7607 3.10569 34.3501C3.0888 34.9416 3.2008 35.5298 3.43391 36.0737C3.66703 36.6176 4.01568 37.1044 4.45569 37.5001C4.86197 37.9267 5.35067 38.2663 5.89214 38.4984C6.43361 38.7304 7.01658 38.8501 7.60569 38.8501C8.19479 38.8501 8.77776 38.7304 9.31924 38.4984C9.86071 38.2663 10.3494 37.9267 10.7557 37.5001L20.8057 27.4501L22.0057 26.2501L23.6557 26.7001C24.6795 26.9966 25.7398 27.1481 26.8057 27.1501C29.9931 27.1412 33.0548 25.9058 35.3557 23.7001C36.5193 22.6052 37.4408 21.2788 38.0608 19.8062C38.6808 18.3336 38.9857 16.7476 38.9557 15.1501C38.9542 14.0349 38.8028 12.925 38.5057 11.8501L31.9057 18.4501C31.348 19.057 30.6751 19.5468 29.9262 19.8909C29.1772 20.2351 28.3673 20.4267 27.5436 20.4546C26.7198 20.4825 25.8988 20.3462 25.1283 20.0535C24.3577 19.7609 23.6532 19.3178 23.0557 18.7501C22.488 18.1526 22.0449 17.448 21.7522 16.6775C21.4596 15.907 21.3232 15.086 21.3512 14.2622C21.3791 13.4385 21.5707 12.6285 21.9149 11.8796C22.259 11.1307 22.7488 10.4578 23.3557 9.90009L29.9557 3.30009C28.9853 2.99448 27.973 2.84265 26.9557 2.85009C23.7683 2.85894 20.7066 4.09435 18.4057 6.30009C16.104 8.67198 14.8133 11.845 14.8057 15.1501Z" fill="#373373"/>
</svg>
