<svg width="51" height="20" viewBox="0 0 51 20" fill="none" xmlns="http://www.w3.org/2000/svg">
<rect x="0.5" y="0.5" width="49.31" height="19" rx="3.5" fill="white"/>
<rect x="0.5" y="0.5" width="49.31" height="19" rx="3.5" stroke="#6F727F"/>
<path d="M4.55238 6.57537V5.68182H10.791V6.57537H8.17534V14H7.16806V6.57537H4.55238ZM19.0178 9.84091C19.0178 10.7182 18.8594 11.4764 18.5426 12.1154C18.2258 12.7544 17.7912 13.2472 17.2388 13.5938C16.6864 13.9404 16.0555 14.1137 15.3461 14.1137C14.6367 14.1137 14.0058 13.9404 13.4534 13.5938C12.901 13.2472 12.4664 12.7544 12.1496 12.1154C11.8328 11.4764 11.6744 10.7182 11.6744 9.84091C11.6744 8.9636 11.8328 8.20543 12.1496 7.56641C12.4664 6.92738 12.901 6.43457 13.4534 6.08798C14.0058 5.74139 14.6367 5.56809 15.3461 5.56809C16.0555 5.56809 16.6864 5.74139 17.2388 6.08798C17.7912 6.43457 18.2258 6.92738 18.5426 7.56641C18.8594 8.20543 19.0178 8.9636 19.0178 9.84091ZM18.043 9.84091C18.043 9.12065 17.9225 8.51276 17.6815 8.01725C17.4433 7.52173 17.1197 7.14671 16.7108 6.89218C16.3047 6.63765 15.8498 6.51039 15.3461 6.51039C14.8425 6.51039 14.3862 6.63765 13.9774 6.89218C13.5712 7.14671 13.2476 7.52173 13.0066 8.01725C12.7683 8.51276 12.6492 9.12065 12.6492 9.84091C12.6492 10.5612 12.7683 11.1691 13.0066 11.6646C13.2476 12.1601 13.5712 12.5351 13.9774 12.7896C14.3862 13.0442 14.8425 13.1714 15.3461 13.1714C15.8498 13.1714 16.3047 13.0442 16.7108 12.7896C17.1197 12.5351 17.4433 12.1601 17.6815 11.6646C17.9225 11.1691 18.043 10.5612 18.043 9.84091ZM20.7115 14V5.68182H23.5221C24.1747 5.68182 24.7081 5.7996 25.1224 6.03518C25.5394 6.26804 25.8481 6.5835 26.0485 6.98153C26.2488 7.37957 26.349 7.82364 26.349 8.31374C26.349 8.80384 26.2488 9.24927 26.0485 9.65001C25.8508 10.0508 25.5448 10.3703 25.1305 10.6086C24.7163 10.8441 24.1855 10.9619 23.5384 10.9619H21.5238V10.0684H23.5059C23.9527 10.0684 24.3114 9.99119 24.5822 9.83685C24.853 9.68251 25.0493 9.47401 25.1712 9.21136C25.2957 8.946 25.358 8.6468 25.358 8.31374C25.358 7.98069 25.2957 7.68284 25.1712 7.42019C25.0493 7.15754 24.8516 6.95175 24.5782 6.80282C24.3047 6.65119 23.9418 6.57537 23.4896 6.57537H21.7188V14H20.7115ZM31.5296 14H30.4736L33.5279 5.68182H34.5677L37.622 14H36.566L34.0803 6.99778H34.0153L31.5296 14ZM31.9195 10.7507H36.1761V11.6443H31.9195V10.7507ZM41.4846 14H38.9177V5.68182H41.5983C42.4053 5.68182 43.0957 5.84834 43.6698 6.1814C44.2438 6.51174 44.6838 6.98695 44.9898 7.60702C45.2958 8.22439 45.4488 8.9636 45.4488 9.82466C45.4488 10.6911 45.2944 11.4371 44.9857 12.0626C44.677 12.6854 44.2276 13.1647 43.6373 13.5004C43.047 13.8335 42.3294 14 41.4846 14ZM39.925 13.1064H41.4196C42.1074 13.1064 42.6774 12.9738 43.1296 12.7084C43.5818 12.443 43.9189 12.0653 44.1409 11.5752C44.3629 11.0851 44.474 10.5016 44.474 9.82466C44.474 9.15314 44.3643 8.57504 44.145 8.09035C43.9256 7.60296 43.598 7.22929 43.1621 6.96935C42.7261 6.7067 42.1832 6.57537 41.5334 6.57537H39.925V13.1064Z" fill="#6F727F"/>
</svg>
