<svg width="48" height="48" viewBox="0 0 48 48" fill="none" xmlns="http://www.w3.org/2000/svg">
<g clip-path="url(#clip0_57796_557)">
<path d="M40.5 39C40.9063 39 41.2578 39.1484 41.5547 39.4453C41.8516 39.7422 42 40.0937 42 40.5C42 40.9063 41.8516 41.2578 41.5547 41.5547C41.2578 41.8516 40.9063 42 40.5 42H22.5C22.0937 42 21.7422 41.8516 21.4453 41.5547C21.1484 41.2578 21 40.9063 21 40.5C21 40.0937 21.1484 39.7422 21.4453 39.4453C21.7422 39.1484 22.0937 39 22.5 39H40.5ZM37.5 45C37.9063 45 38.2578 45.1484 38.5547 45.4453C38.8516 45.7422 39 46.0937 39 46.5C39 46.9063 38.8516 47.2578 38.5547 47.5547C38.2578 47.8516 37.9063 48 37.5 48H25.5C25.0937 48 24.7422 47.8516 24.4453 47.5547C24.1484 47.2578 24 46.9063 24 46.5C24 46.0937 24.1484 45.7422 24.4453 45.4453C24.7422 45.1484 25.0937 45 25.5 45H37.5ZM43.0781 33H48V36H12.5859C12.4297 37 12.3203 38 12.2578 39C12.1953 40 12.1406 40.9922 12.0938 41.9766C12.0469 42.9609 12.0234 43.9609 12.0234 44.9766C12.0234 45.9922 12.0156 47 12 48H3V43.4766C3 42.2109 3.04688 40.9609 3.14062 39.7266C3.23438 38.4922 3.36719 37.25 3.53906 36H0V33H4.03125C4.8125 29.1719 5.99219 25.4922 7.57031 21.9609C9.14844 18.4297 11.1016 15.0938 13.4297 11.9531C11.1484 11.875 9.05469 11.3984 7.14844 10.5234C5.24219 9.64844 3.5 8.39844 1.92188 6.77344L0.867188 5.69531L1.96875 4.66406C3.59375 3.14844 5.375 2 7.3125 1.21875C9.25 0.4375 11.3359 0.0390625 13.5703 0.0234375C16.0078 0.0234375 18.2422 0.476562 20.2734 1.38281C22.3047 2.28906 24.1719 3.60156 25.875 5.32031C27.0781 5.35156 28.2422 5.53906 29.3672 5.88281C30.4922 6.22656 31.5391 6.69531 32.5078 7.28906C33.4766 7.88281 34.3594 8.58594 35.1562 9.39844C35.9531 10.2109 36.6328 11.1094 37.1953 12.0938C37.7578 13.0781 38.2031 14.1328 38.5312 15.2578C38.8594 16.3828 39.0156 17.5547 39 18.7734V20.2734H37.5C35.4375 20.2734 33.5078 19.8359 31.7109 18.9609C29.9141 18.0859 28.3594 16.8437 27.0469 15.2344C25.8594 17.3906 24.3672 19.1641 22.5703 20.5547C20.7734 21.9453 18.6719 22.9219 16.2656 23.4844C15.5938 25.0312 15 26.5937 14.4844 28.1719C13.9688 29.75 13.5234 31.3594 13.1484 33H19.9219C20.2656 31.6875 20.8047 30.4844 21.5391 29.3906C22.2734 28.2969 23.1484 27.3438 24.1641 26.5312C25.1797 25.7187 26.3203 25.1016 27.5859 24.6797C28.8516 24.2578 30.1563 24.0313 31.5 24C32.8594 24 34.1641 24.2188 35.4141 24.6562C36.6641 25.0937 37.7969 25.7187 38.8125 26.5312C39.8281 27.3438 40.7109 28.2891 41.4609 29.3672C42.2109 30.4453 42.75 31.6563 43.0781 33ZM29.0156 8.90625C28.9219 9.92187 28.7187 10.9531 28.4062 12C29.2031 13.375 30.25 14.5156 31.5469 15.4219C32.8437 16.3281 34.2891 16.9062 35.8828 17.1562C35.7266 16.2031 35.4531 15.3047 35.0625 14.4609C34.6719 13.6172 34.1797 12.8281 33.5859 12.0938C32.9922 11.3594 32.3047 10.7344 31.5234 10.2188C30.7422 9.70312 29.9062 9.26562 29.0156 8.90625ZM26.0625 9.07031C24.4688 9.19531 22.9688 9.58594 21.5625 10.2422C20.1562 10.8984 18.8984 11.7578 17.7891 12.8203C16.6797 13.8828 15.7656 15.1094 15.0469 16.5C14.3281 17.8906 13.8516 19.3672 13.6172 20.9297C14.9453 20.8203 16.2031 20.5391 17.3906 20.0859C18.5781 19.6328 19.6641 19.0234 20.6484 18.2578C21.6328 17.4922 22.5078 16.6172 23.2734 15.6328C24.0391 14.6484 24.6719 13.5234 25.1719 12.2578C25.3906 11.7422 25.5703 11.2187 25.7109 10.6875C25.8516 10.1563 25.9688 9.61719 26.0625 9.07031ZM5.25 5.78906C6.5 6.82031 7.88281 7.60937 9.39844 8.15625C10.9141 8.70313 12.4844 8.97656 14.1094 8.97656C15.625 8.97656 17.0859 8.74219 18.4922 8.27344C19.8984 7.80469 21.2109 7.11719 22.4297 6.21094C21.1797 5.17969 19.7969 4.39063 18.2812 3.84375C16.7656 3.29687 15.1953 3.02344 13.5703 3.02344C12.0547 3.02344 10.5938 3.25781 9.1875 3.72656C7.78125 4.19531 6.46875 4.88281 5.25 5.78906ZM12.7031 23.9531C12.5781 23.9844 12.4531 24 12.3281 24C12.2031 24 12.0781 24 11.9531 24H11.2031C10.9531 24 10.7031 23.9844 10.4531 23.9531V22.8516C9.625 24.6953 8.92969 26.5078 8.36719 28.2891C7.80469 30.0703 7.34375 31.8672 6.98438 33.6797C6.625 35.4922 6.375 37.3281 6.23438 39.1875C6.09375 41.0469 6.01563 42.9844 6 45H9C9 43.1094 9.0625 41.2813 9.1875 39.5156C9.3125 37.75 9.52344 36.0078 9.82031 34.2891C10.1172 32.5703 10.5 30.8594 10.9688 29.1562C11.4375 27.4531 12.0156 25.7188 12.7031 23.9531ZM23.0625 33H39.9375C39.625 32.1094 39.1875 31.2969 38.625 30.5625C38.0625 29.8281 37.4141 29.1953 36.6797 28.6641C35.9453 28.1328 35.1328 27.7266 34.2422 27.4453C33.3516 27.1641 32.4375 27.0156 31.5 27C30.5469 27 29.6328 27.1406 28.7578 27.4219C27.8828 27.7031 27.0781 28.1094 26.3438 28.6406C25.6094 29.1719 24.9531 29.8047 24.375 30.5391C23.7969 31.2734 23.3594 32.0937 23.0625 33Z" fill="#373373"/>
</g>
<defs>
<clipPath id="clip0_57796_557">
<rect width="48" height="48" fill="white"/>
</clipPath>
</defs>
</svg>
